<svg width="351" height="88" viewBox="0 0 351 88" fill="none" xmlns="http://www.w3.org/2000/svg">
<path d="M172.6 40H170.572C169.029 40 167.794 41.2376 167.794 42.7845V56.1768H151.834V42.7845C151.834 41.2376 150.6 40 149.057 40H147.029C145.486 40 144.251 41.2376 144.251 42.7845V78.895C144.251 80.442 145.486 81.6796 147.029 81.6796H149.057C150.6 81.6796 151.834 80.442 151.834 78.895V63.2928H167.794V78.895C167.794 80.442 169.029 81.6796 170.572 81.6796H172.6C174.143 81.6796 175.377 80.442 175.377 78.895V42.7845C175.377 41.2376 174.143 40 172.6 40Z" fill="black"/>
<path d="M206.416 63.558C207.959 63.558 209.193 62.3204 209.193 60.7735V59.2265C209.193 57.6796 207.959 56.442 206.416 56.442H188.251V47.6464H206.239C207.782 47.6464 209.017 46.4088 209.017 44.8619V43.3149C209.017 41.7679 207.782 40.5304 206.239 40.5304H185.474H183.269H182.872C181.329 40.5304 180.095 41.7679 180.095 43.3149V78.1436C180.095 78.8508 180.359 79.4696 180.8 79.9558C181.285 80.7072 182.167 81.1934 183.093 81.1934H206.46C208.003 81.1934 209.237 79.9558 209.237 78.4088V76.8619C209.237 75.3149 208.003 74.0773 206.46 74.0773H188.251V63.558H206.416Z" fill="black"/>
<path d="M69.6975 63.558C71.2406 63.558 72.4751 62.3204 72.4751 60.7735V59.2265C72.4751 57.6796 71.2406 56.442 69.6975 56.442H51.5331V47.6464H69.5211C71.0642 47.6464 72.2987 46.4088 72.2987 44.8619V43.3149C72.2987 41.7679 71.0642 40.5304 69.5211 40.5304H48.7555H46.5511H46.1543C44.6112 40.5304 43.3767 41.7679 43.3767 43.3149V78.1436C43.3767 78.8508 43.6412 79.4696 44.0821 79.9558C44.5671 80.7072 45.4489 81.1934 46.3747 81.1934H69.7416C71.2847 81.1934 72.5191 79.9558 72.5191 78.4088V76.8619C72.5191 75.3149 71.2847 74.0773 69.7416 74.0773H51.5772V63.558H69.6975Z" fill="black"/>
<path d="M234.324 62.232C240.496 60.7735 242.656 55.4696 242.656 55.4696C242.656 55.4696 243.891 52.7735 242.392 46.9392C242.304 46.5414 242.171 46.1436 241.995 45.7459C241.29 43.9779 240.011 42.5193 238.424 41.4586C237.807 41.0608 237.145 40.7514 236.484 40.4862C235.294 40 234.015 40.0442 232.737 40.0442C231.458 40.0442 230.223 40.0442 228.945 40.0442C225.859 40 221.318 40.0442 218.231 40.0442C218.099 40.0442 218.011 40 217.879 40H215.498C213.955 40 212.72 41.2376 212.72 42.7845V78.895C212.72 80.442 213.955 81.6796 215.498 81.6796H217.879C219.422 81.6796 220.656 80.442 220.656 78.895V63.779C223.787 62.5414 226.344 63.6022 226.344 63.6022C229.342 65.2818 233.045 72.4862 235.25 76.5525C235.69 77.3923 236.175 78.232 236.749 78.9834C237.101 79.5138 237.542 80.0884 238.027 80.4862C238.424 80.7956 239.085 80.8398 239.614 80.884C240.055 80.9282 240.496 80.9282 240.937 80.884C241.554 80.7956 242.171 80.5746 242.612 80.1326C243.141 79.6464 243.494 78.9392 243.538 78.232C243.538 78.1878 243.538 78.1878 243.538 78.1436C242.26 69.0387 234.324 62.232 234.324 62.232ZM230.973 56.9724C229.562 57.1492 220.656 57.2376 220.656 57.2376V49.9448C220.656 48.0442 220.656 46.5414 220.656 46.5414C223.125 46.5414 225.638 46.5414 228.107 46.5414C228.725 46.5414 229.386 46.5414 230.003 46.5414C230.885 46.5414 231.678 46.4972 232.516 46.895C233.045 47.116 233.53 47.4254 233.971 47.779C235.25 48.8398 235.779 50.3867 235.602 52.0221C235.161 56.5304 232.384 56.7956 230.973 56.9724Z" fill="black"/>
<path d="M275.586 10.1772C269.899 0.939585 258.965 -2.68472 251.161 2.13296C243.358 6.95063 241.682 18.354 247.37 27.6357C253.057 36.8733 263.991 40.4976 271.795 35.6799C279.554 30.8622 281.274 19.4589 275.586 10.1772ZM267.65 28.9617C262.977 31.8788 256.408 29.7131 252.969 24.144C249.53 18.5749 250.588 11.7241 255.262 8.80699C259.935 5.88986 266.504 8.05561 269.943 13.6247C273.382 19.2379 272.368 26.0888 267.65 28.9617Z" fill="black"/>
<path d="M262.458 75.1381C259.592 71.6464 258.887 68.6851 257.873 65.9005C257.476 64.8398 257.74 63.7348 259.019 63.337C260.694 62.8066 262.766 63.0276 262.899 60.4199C263.031 57.5912 262.458 54.895 260.43 52.9061C257.696 50.1657 255.448 47.2486 255.007 43.2265C254.963 42.6519 255.139 42.0773 255.36 40C258.093 46.1436 259.283 53.0387 266.646 51.8011C272.334 50.8729 273.524 45.3923 274.758 40.442C276.39 43.8011 275.596 47.2486 273.48 49.5028C269.027 54.3646 270.173 59.8453 270.614 65.326C271.099 71.6464 271.584 77.9668 272.025 84.2873C272.113 85.3923 272.289 86.8066 270.482 87.4696C268.454 84.3315 269.644 80.7956 269.38 77.4807C269.159 74.9171 269.38 72.2652 267.616 70.1436C266.558 68.8177 265.147 67.5359 263.384 68.1547C261.488 68.8177 262.237 70.674 262.325 72.0884C262.325 72.663 262.37 73.1934 262.458 75.1381Z" fill="#343C3D"/>
<path d="M269.247 45.6133C268.895 47.8674 267.704 49.326 265.368 49.1492C263.295 48.9724 262.193 47.5138 262.193 45.4807C262.149 42.9613 263.692 41.9889 265.985 42.1657C268.101 42.2099 269.203 43.4475 269.247 45.6133Z" fill="#343C3D"/>
<path d="M314.609 73.8121H297.855V43.5801C297.855 41.8121 296.4 40.3094 294.593 40.3094H291.991C290.228 40.3094 288.729 41.768 288.729 43.5801V78.0552C288.729 79.8232 290.184 81.326 291.991 81.326H293.27H294.593H314.609C316.372 81.326 317.871 79.8674 317.871 78.0552V77.0387C317.871 75.2707 316.416 73.8121 314.609 73.8121Z" fill="black"/>
<path d="M350.982 60.3757C350.673 49.5028 343.046 40.884 333.875 41.1492C324.705 41.4144 317.563 50.4309 317.827 61.2597C318.136 72.1326 325.763 80.7514 334.934 80.4862C344.104 80.221 351.29 71.2486 350.982 60.3757ZM334.757 72.663C329.246 72.7956 324.661 67.6243 324.485 61.0829C324.308 54.5414 328.629 49.105 334.14 48.9724C339.651 48.8398 344.236 54.011 344.413 60.5525C344.589 67.0939 340.268 72.5304 334.757 72.663Z" fill="black"/>
<path d="M137.345 40H106.792C104.719 40 103 41.7238 103 43.8011C103 45.8785 104.719 47.6022 106.792 47.6022H117.593V76.9503C117.593 79.0276 119.313 80.7514 121.385 80.7514C123.457 80.7514 125.176 79.0276 125.176 76.9503V47.558H137.433C139.505 47.558 141.225 45.8343 141.225 43.7569C141.092 41.7238 139.417 40 137.345 40Z" fill="black"/>
<path d="M35.8254 40.4904C33.621 39.96 31.4166 41.3301 30.8875 43.5401L27.4045 58.3909L23.8775 43.1865C23.4366 41.2417 21.673 39.96 19.7331 40.0042C17.8373 39.9158 16.0297 41.2417 15.5888 43.1865L11.8413 59.1865L8.09379 43.1865C7.56473 40.9765 5.36031 39.6064 3.15589 40.1368C0.951471 40.6672 -0.41527 42.8771 0.113791 45.087L7.697 77.4406C8.13788 79.3854 9.90142 80.6672 11.8413 80.623C13.7371 80.7113 15.5447 79.3854 15.9856 77.4406L19.7331 61.4406L23.4807 77.4406C24.0097 79.6506 26.2141 81.0207 28.4186 80.4904C30.1821 80.0926 31.4607 78.5456 31.5488 76.7776L38.8675 45.3964C39.3966 43.2307 38.0298 41.0207 35.8254 40.4904Z" fill="black"/>
<path d="M107.129 77.3923L93.6376 42.1215C93.5053 41.9005 93.1967 41.3702 92.5353 40.9724C91.874 40.5746 91.2127 40.5746 90.9482 40.5746C90.7718 40.5746 90.5955 40.5746 90.4191 40.5304C90.2427 40.4862 89.5373 40.3978 88.8319 40.7956C88.1265 41.1934 87.8179 41.8121 87.7738 41.9889L75.1645 77.6574C74.7677 78.7624 75.3409 79.9558 76.4431 80.3536L78.427 81.0608C79.5293 81.4586 80.7196 80.884 81.1164 79.779L85.393 67.6685H96.6356L101.221 79.6464C101.618 80.7072 102.852 81.2818 103.954 80.8398L105.938 80.0884C106.996 79.6906 107.525 78.453 107.129 77.3923ZM87.1125 62.7182L90.7718 52.3757L94.7398 62.7182H87.1125Z" fill="black"/>
</svg>
